<?xml version="1.0" standalone="no"?>
<!DOCTYPE svg PUBLIC "-//W3C//DTD SVG 1.0//EN" "http://www.w3.org/TR/2001/REC-SVG-20010904/DTD/svg10.dtd">
<svg xmlns="http://www.w3.org/2000/svg" xmlns:xlink="http://www.w3.org/1999/xlink" id="body_1" width="443" height="326">

<g transform="matrix(0.49970683 0 0 0.49970683 0.10113695 -0)">
    <path transform="matrix(1 0 0 1 -156.9425 -123.80875)"  d="M911 774.062L911 701.72205C 911 701.72205 939.19165 753.008 911 774.062z" stroke="none" fill="#F1F1F1" fill-rule="nonzero" />
    <path transform="matrix(1 0 0 1 -156.9425 -123.80875)"  d="M912.74146 774.0493L859.45184 725.12805C 859.45184 725.12805 916.297 739.0436 912.74146 774.0493z" stroke="none" fill="#F1F1F1" fill-rule="nonzero" />
    <path d="M191.188 0L63.729 0L0 110.382L63.729 220.765L191.188 220.765L254.917 110.382L191.188 0L191.188 0" stroke="none" fill="#E6E6E6" fill-rule="nonzero" />
    <path transform="matrix(1 0 0 1 -156.9425 -123.80875)"  d="M227.825 332.18353L340.977 332.18353L397.55298 234.19107L340.977 136.1986L227.825 136.1986L171.249 234.19106L227.825 332.18353z" stroke="none" fill="#FFFFFF" fill-rule="nonzero" />
    <path d="M74.735954 81.14999C 74.735954 82.59146 74.22632 83.821846 73.20703 84.841125C 72.18775 85.86041 70.957375 86.37005 69.51589 86.37005C 68.07442 86.37005 66.84404 85.86041 65.82475 84.841125C 64.80547 83.821846 64.29583 82.59146 64.29583 81.14999C 64.29583 79.70851 64.80547 78.478134 65.82475 77.45885C 66.84404 76.43957 68.07442 75.929924 69.51589 75.929924C 70.957375 75.929924 72.18775 76.43957 73.20703 77.45885C 74.22632 78.478134 74.735954 79.70851 74.735954 81.14999C 74.735954 81.21073 74.73489 81.271454 74.73277 81.33216" stroke="none" fill="#E2E2E2" fill-rule="nonzero" />
    <path d="M74.735954 110.38231C 74.735954 111.82379 74.22632 113.05417 73.20703 114.07345C 72.18775 115.092735 70.957375 115.60238 69.51589 115.60237C 68.07442 115.60238 66.84404 115.092735 65.82475 114.07345C 64.80547 113.05417 64.29583 111.82379 64.29583 110.38231C 64.29583 108.940834 64.80547 107.71045 65.82475 106.69117C 66.84404 105.67189 68.07442 105.162254 69.51589 105.16225C 70.957375 105.162254 72.18775 105.67189 73.20703 106.69117C 74.22632 107.71045 74.735954 108.940834 74.735954 110.38231C 74.735954 110.44306 74.73489 110.503784 74.73277 110.56448" stroke="none" fill="#E2E2E2" fill-rule="nonzero" />
    <path d="M74.735954 139.61462C 74.735954 141.0561 74.22632 142.2865 73.20703 143.30577C 72.18775 144.32504 70.957375 144.83469 69.51589 144.83469C 68.07442 144.83469 66.84404 144.32504 65.82475 143.30577C 64.80547 142.2865 64.29583 141.0561 64.29583 139.61462C 64.29583 138.17316 64.80547 136.94276 65.82475 135.92348C 66.84404 134.9042 68.07442 134.39456 69.51589 134.39456C 70.957375 134.39456 72.18775 134.9042 73.20703 135.92348C 74.22632 136.94276 74.735954 138.17316 74.735954 139.61462C 74.735954 139.67537 74.73489 139.7361 74.73277 139.7968" stroke="none" fill="#E2E2E2" fill-rule="nonzero" />
    <path d="M91.44012 76.97395L190.62119 76.97395L190.62119 85.32604L91.44012 85.32604z" stroke="none" fill="#E2E2E2" fill-rule="nonzero" />
    <path d="M91.44012 106.20626L190.62119 106.20626L190.62119 114.55835L91.44012 114.55835z" stroke="none" fill="#E2E2E2" fill-rule="nonzero" />
    <path d="M91.44012 135.43858L190.62119 135.43858L190.62119 143.79068L91.44012 143.79068z" stroke="none" fill="#E2E2E2" fill-rule="nonzero" />
    <path d="M822.386 0L694.927 0L631.198 110.382L694.927 220.765L822.386 220.765L886.115 110.382L822.386 0L822.386 0" stroke="none" fill="#E6E6E6" fill-rule="nonzero" />
    <path transform="matrix(1 0 0 1 -156.9425 -123.80875)"  d="M859.0228 332.18353L972.1748 332.18353L1028.7509 234.19107L972.17487 136.19861L859.0228 136.19861L802.44684 234.19107L859.0228 332.18353z" stroke="none" fill="#FFFFFF" fill-rule="nonzero" />
    <path d="M705.9337 81.14999C 705.9337 82.59146 705.42413 83.82184 704.40485 84.84112C 703.38556 85.8604 702.15515 86.37004 700.7137 86.37003C 699.2722 86.37004 698.0419 85.8604 697.0225 84.84112C 696.0033 83.82184 695.49365 82.59146 695.49365 81.14999C 695.49365 79.70851 696.0033 78.478134 697.0225 77.458855C 698.0419 76.439575 699.2722 75.92994 700.7137 75.92994C 702.15515 75.92994 703.38556 76.439575 704.40485 77.458855C 705.42413 78.478134 705.9337 79.70851 705.9337 81.14999C 705.9337 81.21073 705.9327 81.271454 705.93054 81.33216" stroke="none" fill="#E2E2E2" fill-rule="nonzero" />
    <path d="M705.9337 110.38231C 705.9337 111.82379 705.42413 113.05417 704.40485 114.07344C 703.38556 115.09272 702.15515 115.602356 700.7137 115.602356C 699.2722 115.602356 698.0419 115.09272 697.0225 114.07344C 696.0033 113.05417 695.49365 111.82379 695.49365 110.38231C 695.49365 108.940834 696.0033 107.71046 697.0225 106.69118C 698.0419 105.671906 699.2722 105.16226 700.7137 105.16226C 702.15515 105.16226 703.38556 105.671906 704.40485 106.69118C 705.42413 107.71046 705.9337 108.940834 705.9337 110.38231C 705.9337 110.44306 705.9327 110.503784 705.93054 110.56448" stroke="none" fill="#E2E2E2" fill-rule="nonzero" />
    <path d="M705.9337 139.61462C 705.9337 141.0561 705.42413 142.28648 704.40485 143.30576C 703.38556 144.32504 702.15515 144.83467 700.7137 144.83467C 699.2722 144.83467 698.0419 144.32504 697.0225 143.30576C 696.0033 142.28648 695.49365 141.0561 695.49365 139.61462C 695.49365 138.17316 696.0033 136.94278 697.0225 135.9235C 698.0419 134.90422 699.2722 134.39459 700.7137 134.39458C 702.15515 134.39459 703.38556 134.90422 704.40485 135.9235C 705.42413 136.94278 705.9337 138.17316 705.9337 139.61462C 705.9337 139.67537 705.9327 139.7361 705.93054 139.7968" stroke="none" fill="#E2E2E2" fill-rule="nonzero" />
    <path d="M722.63794 76.97395L821.819 76.97395L821.819 85.32604L722.63794 85.32604z" stroke="none" fill="#E2E2E2" fill-rule="nonzero" />
    <path d="M722.63794 106.20626L821.819 106.20626L821.819 114.55835L722.63794 114.55835z" stroke="none" fill="#E2E2E2" fill-rule="nonzero" />
    <path d="M722.63794 135.43858L821.819 135.43858L821.819 143.79068L722.63794 143.79068z" stroke="none" fill="#E2E2E2" fill-rule="nonzero" />
    <path d="M506.167 1.072L379.946 1.072L316.836 110.382L379.946 219.693L506.167 219.693L569.279 110.382L506.167 1.072L506.167 1.072" stroke="none" fill="#E6E6E6" fill-rule="nonzero" />
    <path transform="matrix(1 0 0 1 -156.9425 -123.80875)"  d="M543.97327 331.2319L656.0264 331.2319L712.053 234.19107L656.0264 137.15024L543.97327 137.15024L487.94672 234.19106L543.97327 331.2319z" stroke="none" fill="#FFFFFF" fill-rule="nonzero" />
    <path d="M390.84677 81.43388C 390.84677 82.86137 390.3421 84.079796 389.3327 85.08917C 388.3233 86.09856 387.1049 86.60324 385.6774 86.60324C 384.24994 86.60324 383.0315 86.09856 382.0221 85.08917C 381.01273 84.079796 380.50806 82.86137 380.50803 81.43388C 380.50806 80.00641 381.01273 78.78798 382.0221 77.778595C 383.0315 76.76922 384.24994 76.26453 385.6774 76.26453C 387.1049 76.26453 388.3233 76.76922 389.3327 77.778595C 390.3421 78.78798 390.84677 80.00641 390.84677 81.43388C 390.84677 81.49404 390.8457 81.55418 390.8436 81.61429" stroke="none" fill="#6C63FF" fill-rule="nonzero" />
    <path d="M390.84677 110.38231C 390.84677 111.80979 390.3421 113.02822 389.3327 114.0376C 388.3233 115.04698 387.1049 115.55167 385.6774 115.55167C 384.24994 115.55167 383.0315 115.04698 382.0221 114.0376C 381.01273 113.02822 380.50806 111.80979 380.50803 110.38231C 380.50806 108.954834 381.01273 107.736404 382.0221 106.72702C 383.0315 105.71764 384.24994 105.21295 385.6774 105.21295C 387.1049 105.21295 388.3233 105.71764 389.3327 106.72702C 390.3421 107.736404 390.84677 108.954834 390.84677 110.38231C 390.84677 110.44247 390.8457 110.5026 390.8436 110.56271" stroke="none" fill="#6C63FF" fill-rule="nonzero" />
    <path d="M390.84677 139.33073C 390.84677 140.75821 390.3421 141.97665 389.3327 142.98602C 388.3233 143.9954 387.1049 144.50009 385.6774 144.50009C 384.24994 144.50009 383.0315 143.9954 382.0221 142.98602C 381.01273 141.97665 380.50806 140.75821 380.50803 139.33073C 380.50806 137.90326 381.01273 136.68483 382.0221 135.67545C 383.0315 134.66608 384.24994 134.16138 385.6774 134.16138C 387.1049 134.16138 388.3233 134.66608 389.3327 135.67545C 390.3421 136.68483 390.84677 137.90326 390.84677 139.33073C 390.84677 139.3909 390.8457 139.45102 390.8436 139.51114" stroke="none" fill="#6C63FF" fill-rule="nonzero" />
    <path d="M407.3887 77.29839L505.6066 77.29839L505.6066 85.569374L407.3887 85.569374z" stroke="none" fill="#6C63FF" fill-rule="nonzero" />
    <path d="M407.3887 106.24682L505.6066 106.24682L505.6066 114.5178L407.3887 114.5178z" stroke="none" fill="#6C63FF" fill-rule="nonzero" />
    <path d="M407.3887 135.19525L505.6066 135.19525L505.6066 143.46623L407.3887 143.46623z" stroke="none" fill="#6C63FF" fill-rule="nonzero" />
    <path d="M550.665 639.737L538.405 639.736L532.573 592.448L550.667 592.449L550.665 639.737L550.665 639.737" stroke="none" fill="#9F616A" fill-rule="nonzero" />
    <path transform="matrix(1 0 0 1 -156.9425 -123.80875)"  d="M710.73395 775.42957L671.2032 775.4281L671.2032 774.9281C 671.2038 766.43066 678.0922 759.54236 686.58966 759.5419L686.58966 759.5419L686.59064 759.5419L710.7346 759.54285L710.73395 775.42957z" stroke="none" fill="#2F2E41" fill-rule="nonzero" />
    <path d="M664.665 639.737L652.405 639.736L646.573 592.448L664.667 592.449L664.665 639.737L664.665 639.737" stroke="none" fill="#9F616A" fill-rule="nonzero" />
    <path transform="matrix(1 0 0 1 -156.9425 -123.80875)"  d="M824.73395 775.42957L785.2032 775.4281L785.2032 774.9281C 785.2038 766.43066 792.0922 759.54236 800.58966 759.5419L800.58966 759.5419L800.59064 759.5419L824.7346 759.54285L824.73395 775.42957z" stroke="none" fill="#2F2E41" fill-rule="nonzero" />
    <path transform="matrix(1 0 0 1 -156.9425 -123.80875)"  d="M702.72095 523.5706C 702.72095 523.5706 692.43036 551.50214 693.90045 563.26276C 695.37054 575.0234 683.6099 657.3479 685.07996 664.6983C 686.55 672.0487 683.60986 708.8007 685.07996 714.681C 686.55005 720.56134 680.954 727.585 683.8941 733.46533C 686.8342 739.34564 690.96027 751.433 690.96027 751.433L690.96027 751.433L710.0713 749.9629L713.0115 733.792C 713.0115 733.792 721.832 732.3219 720.3619 723.5014C 718.8918 714.6809 727.7123 655.87775 727.7123 655.87775L727.7123 655.87775L752.7036 573.5533L787.98553 648.52734C 787.98553 648.52734 789.4556 701.4502 793.86584 707.3305C 798.27606 713.2108 789.4556 729.3817 793.86584 735.262C 798.27606 741.14233 802.68634 751.4329 802.68634 751.4329L802.68634 751.4329L824.73755 751.4329L824.73755 739.67236C 824.73755 739.67236 837.96826 732.32196 824.73755 710.27075L824.73755 710.27075L815.79736 577.8439L806.97687 517.5706L702.72095 523.5706z" stroke="none" fill="#2F2E41" fill-rule="nonzero" />
    <path d="M628.03796 187.45592C 628.03796 195.0381 625.3573 201.50989 619.99585 206.87129C 614.63446 212.2327 608.1627 214.9134 600.5805 214.91339C 592.9984 214.9134 586.5266 212.2327 581.16516 206.87129C 575.8038 201.50989 573.12305 195.0381 573.12305 187.45592C 573.12305 179.87375 575.8038 173.40196 581.16516 168.04054C 586.5266 162.67915 592.9984 159.99844 600.5805 159.99844C 608.1627 159.99844 614.63446 162.67915 619.99585 168.04054C 625.3573 173.40196 628.03796 179.87375 628.03796 187.45592C 628.03796 187.77544 628.0324 188.09485 628.02124 188.41417" stroke="none" fill="#A0616A" fill-rule="nonzero" />
    <path transform="matrix(1 0 0 1 -156.9425 -123.80875)"  d="M734.15717 309.37057C 736.0946 314.32074 738.0321 319.27087 739.96967 324.22104C 742.35156 330.30655 745.07947 336.81732 750.66266 340.21353C 757.556 344.40674 766.7616 342.36212 773.43005 337.81982C 785.71326 329.453 791.49603 314.32864 787.92816 299.9012C 784.3602 285.4738 772.1947 274.78802 757.42755 273.11072L757.42755 273.11072L757.1516 278.08118L751.0523 272.96872C 750.13837 274.53687 748.55664 275.60007 746.7595 275.85422C 744.9624 276.10837 743.1478 275.52545 741.83496 274.27225C 743.43713 277.59332 741.588 281.64386 738.91766 284.188C 735.63696 287.31332 726.2537 291.06943 726.6431 296.65652C 726.903 300.3849 732.64484 305.50674 734.15717 309.37057z" stroke="none" fill="#2F2E41" fill-rule="nonzero" />
    <path transform="matrix(1 0 0 1 -156.9425 -123.80875)"  d="M833.10406 564.18695C 835.0196 561.32874 835.57074 557.7689 834.6092 554.46533C 833.6477 551.1617 831.2723 548.4537 828.12213 547.06995L828.12213 547.06995L828.6708 520.5079L812.6104 516.23755L812.3625 553.7592C 810.34424 559.32764 812.8098 565.5255 818.1016 568.1859C 823.3934 570.8463 829.8386 569.1283 833.1041 564.18695L833.1041 564.18695L833.10406 564.18695z" stroke="none" fill="#9F616A" fill-rule="nonzero" />
    <path transform="matrix(1 0 0 1 -156.9425 -123.80875)"  d="M777.91956 355.69214C 777.91956 355.69214 756.6422 345.05347 736.54694 352.1459C 716.45166 359.23834 705.8129 367.5129 705.8129 367.5129L705.8129 367.5129L718.81573 436.07327L701.08466 528.27515C 701.08466 528.27515 792.1045 521.1827 800.37897 528.27515C 808.65344 535.3676 808.6535 520.0006 808.6535 520.0006L808.6535 520.0006L801.561 432.527L814.56384 376.96948L777.91956 355.69214z" stroke="none" fill="#3F3D56" fill-rule="nonzero" />
    <path transform="matrix(1 0 0 1 -156.9425 -123.80875)"  d="M688.11536 565.7598C 690.75635 563.55444 692.2848 560.29254 692.2894 556.8518C 692.29407 553.41113 690.7745 550.1451 688.1395 547.93256L688.1395 547.93256L696.12366 522.5929L681.9082 513.9852L671.1357 549.9281C 667.6353 554.70593 668.26166 561.3467 672.59357 565.3858C 676.92554 569.42487 683.5939 569.5856 688.11536 565.7598z" stroke="none" fill="#9F616A" fill-rule="nonzero" />
    <path transform="matrix(1 0 0 1 -156.9425 -123.80875)"  d="M714.08746 367.5129L705.8129 367.5129C 705.8129 367.5129 692.81006 375.78745 692.81006 387.6082C 692.81006 399.42892 673.8969 537.7318 673.8969 537.7318L673.8969 537.7318L693.9922 541.278L711.7233 444.3478L724.7262 418.34213L714.08746 367.5129z" stroke="none" fill="#3F3D56" fill-rule="nonzero" />
    <path transform="matrix(1 0 0 1 -156.9425 -123.80875)"  d="M792.1045 376.9695L814.5639 376.9695C 814.5639 376.9695 821.6564 384.06195 825.2026 400.61102C 828.7488 417.1601 832.29504 482.17422 832.29504 482.17422L832.29504 482.17422L829.9309 541.278L812.19977 541.278L809.83563 464.4431L798.0149 414.796L792.1045 376.9695z" stroke="none" fill="#3F3D56" fill-rule="nonzero" />
    <path transform="matrix(1 0 0 1 -156.9425 -123.80875)"  d="M961.78345 776.1912L580.78345 776.1912C 580.23114 776.1912 579.78345 775.7435 579.78345 775.1912C 579.78345 774.6389 580.23114 774.1912 580.78345 774.1912L580.78345 774.1912L961.78345 774.1912C 962.33575 774.1912 962.78345 774.6389 962.78345 775.1912C 962.78345 775.7435 962.33575 776.1912 961.78345 776.1912z" stroke="none" fill="#CBCBCB" fill-rule="nonzero" />
</g>
</svg>